<mxfile host="app.diagrams.net" modified="2023-10-09T11:54:40.985Z" agent="Mozilla/5.0 (X11; Linux x86_64) AppleWebKit/537.36 (KHTML, like Gecko) Chrome/117.0.0.0 Safari/537.36" etag="0amxi10meLR2ZhIZGlgA" version="22.0.4" type="github">
  <diagram name="Página-1" id="LqLyrgsGRFEnYHRFgHJd">
    <mxGraphModel dx="1274" dy="665" grid="1" gridSize="10" guides="1" tooltips="1" connect="1" arrows="1" fold="1" page="1" pageScale="1" pageWidth="827" pageHeight="1169" math="0" shadow="0">
      <root>
        <mxCell id="0" />
        <mxCell id="1" parent="0" />
        <mxCell id="cfMmnQMcz1cPU77lf20z-1" value="Pertenece" style="rhombus;whiteSpace=wrap;html=1;" vertex="1" parent="1">
          <mxGeometry x="503" y="255" width="80" height="80" as="geometry" />
        </mxCell>
        <mxCell id="cfMmnQMcz1cPU77lf20z-3" value="CUERPO" style="rounded=0;whiteSpace=wrap;html=1;" vertex="1" parent="1">
          <mxGeometry x="643" y="270" width="100" height="50" as="geometry" />
        </mxCell>
        <mxCell id="cfMmnQMcz1cPU77lf20z-4" value="SOLDADO" style="rounded=0;whiteSpace=wrap;html=1;" vertex="1" parent="1">
          <mxGeometry x="353" y="270" width="100" height="50" as="geometry" />
        </mxCell>
        <mxCell id="cfMmnQMcz1cPU77lf20z-5" value="COMPAÑÍA" style="rounded=0;whiteSpace=wrap;html=1;" vertex="1" parent="1">
          <mxGeometry x="40" y="270" width="100" height="50" as="geometry" />
        </mxCell>
        <mxCell id="cfMmnQMcz1cPU77lf20z-6" value="Integra" style="rhombus;whiteSpace=wrap;html=1;" vertex="1" parent="1">
          <mxGeometry x="210" y="255" width="80" height="80" as="geometry" />
        </mxCell>
        <mxCell id="cfMmnQMcz1cPU77lf20z-7" value="" style="endArrow=none;html=1;rounded=0;entryX=0;entryY=0.5;entryDx=0;entryDy=0;exitX=1;exitY=0.5;exitDx=0;exitDy=0;" edge="1" parent="1" source="cfMmnQMcz1cPU77lf20z-4" target="cfMmnQMcz1cPU77lf20z-1">
          <mxGeometry width="50" height="50" relative="1" as="geometry">
            <mxPoint x="433" y="370" as="sourcePoint" />
            <mxPoint x="483" y="320" as="targetPoint" />
          </mxGeometry>
        </mxCell>
        <mxCell id="cfMmnQMcz1cPU77lf20z-8" value="" style="endArrow=none;html=1;rounded=0;exitX=1;exitY=0.5;exitDx=0;exitDy=0;entryX=0;entryY=0.5;entryDx=0;entryDy=0;" edge="1" parent="1" source="cfMmnQMcz1cPU77lf20z-1" target="cfMmnQMcz1cPU77lf20z-3">
          <mxGeometry width="50" height="50" relative="1" as="geometry">
            <mxPoint x="593" y="294.5" as="sourcePoint" />
            <mxPoint x="623" y="310" as="targetPoint" />
          </mxGeometry>
        </mxCell>
        <mxCell id="cfMmnQMcz1cPU77lf20z-9" value="" style="endArrow=none;html=1;rounded=0;entryX=0;entryY=0.5;entryDx=0;entryDy=0;exitX=1;exitY=0.5;exitDx=0;exitDy=0;" edge="1" parent="1" source="cfMmnQMcz1cPU77lf20z-6" target="cfMmnQMcz1cPU77lf20z-4">
          <mxGeometry width="50" height="50" relative="1" as="geometry">
            <mxPoint x="280" y="305" as="sourcePoint" />
            <mxPoint x="330" y="305" as="targetPoint" />
          </mxGeometry>
        </mxCell>
        <mxCell id="cfMmnQMcz1cPU77lf20z-10" value="" style="endArrow=none;html=1;rounded=0;entryX=0;entryY=0.5;entryDx=0;entryDy=0;exitX=1;exitY=0.5;exitDx=0;exitDy=0;" edge="1" parent="1" source="cfMmnQMcz1cPU77lf20z-5" target="cfMmnQMcz1cPU77lf20z-6">
          <mxGeometry width="50" height="50" relative="1" as="geometry">
            <mxPoint x="140" y="320" as="sourcePoint" />
            <mxPoint x="203" y="320" as="targetPoint" />
          </mxGeometry>
        </mxCell>
      </root>
    </mxGraphModel>
  </diagram>
</mxfile>
